<mxfile host="app.diagrams.net" modified="2024-04-05T00:20:50.413Z" agent="Mozilla/5.0 (Windows NT 10.0; Win64; x64) AppleWebKit/537.36 (KHTML, like Gecko) Chrome/123.0.0.0 Safari/537.36" etag="xCHrYQTeg-_A9dNKvo1w" version="24.2.2" type="device">
  <diagram name="Page-1" id="5vvJBarFaG8kQ3ZsbAbO">
    <mxGraphModel dx="1434" dy="772" grid="1" gridSize="10" guides="1" tooltips="1" connect="1" arrows="1" fold="1" page="1" pageScale="1" pageWidth="850" pageHeight="1100" math="0" shadow="0">
      <root>
        <mxCell id="0" />
        <mxCell id="1" parent="0" />
        <mxCell id="gNXtZLl0SJeopdAhFCKV-8" style="edgeStyle=orthogonalEdgeStyle;rounded=0;orthogonalLoop=1;jettySize=auto;html=1;" edge="1" parent="1" source="gNXtZLl0SJeopdAhFCKV-1" target="gNXtZLl0SJeopdAhFCKV-3">
          <mxGeometry relative="1" as="geometry" />
        </mxCell>
        <mxCell id="gNXtZLl0SJeopdAhFCKV-1" value="User" style="sketch=0;outlineConnect=0;fontColor=#232F3E;gradientColor=none;fillColor=#232F3D;strokeColor=none;dashed=0;verticalLabelPosition=bottom;verticalAlign=top;align=center;html=1;fontSize=12;fontStyle=0;aspect=fixed;pointerEvents=1;shape=mxgraph.aws4.user;" vertex="1" parent="1">
          <mxGeometry x="10" y="70" width="60" height="60" as="geometry" />
        </mxCell>
        <mxCell id="gNXtZLl0SJeopdAhFCKV-2" value="AWS Cloud" style="points=[[0,0],[0.25,0],[0.5,0],[0.75,0],[1,0],[1,0.25],[1,0.5],[1,0.75],[1,1],[0.75,1],[0.5,1],[0.25,1],[0,1],[0,0.75],[0,0.5],[0,0.25]];outlineConnect=0;gradientColor=none;html=1;whiteSpace=wrap;fontSize=12;fontStyle=0;container=0;pointerEvents=0;collapsible=0;recursiveResize=0;shape=mxgraph.aws4.group;grIcon=mxgraph.aws4.group_aws_cloud_alt;strokeColor=#232F3E;fillColor=none;verticalAlign=top;align=left;spacingLeft=30;fontColor=#232F3E;dashed=0;" vertex="1" parent="1">
          <mxGeometry x="220" y="10" width="260" height="180" as="geometry" />
        </mxCell>
        <mxCell id="gNXtZLl0SJeopdAhFCKV-9" style="edgeStyle=orthogonalEdgeStyle;rounded=0;orthogonalLoop=1;jettySize=auto;html=1;" edge="1" parent="1" source="gNXtZLl0SJeopdAhFCKV-3" target="gNXtZLl0SJeopdAhFCKV-4">
          <mxGeometry relative="1" as="geometry" />
        </mxCell>
        <mxCell id="gNXtZLl0SJeopdAhFCKV-3" value="Picture" style="shape=image;html=1;verticalAlign=top;verticalLabelPosition=bottom;labelBackgroundColor=#ffffff;imageAspect=0;aspect=fixed;image=https://cdn4.iconfinder.com/data/icons/essential-3/32/346-Document_Picture-128.png;imageBorder=none;" vertex="1" parent="1">
          <mxGeometry x="130" y="75.5" width="50" height="50" as="geometry" />
        </mxCell>
        <mxCell id="gNXtZLl0SJeopdAhFCKV-7" value="OpenAI" style="shape=image;verticalLabelPosition=bottom;labelBackgroundColor=default;verticalAlign=top;aspect=fixed;imageAspect=0;image=https://alfred.app/workflows/alfredapp/openai/icon.png;" vertex="1" parent="1">
          <mxGeometry x="530" y="70" width="60" height="60" as="geometry" />
        </mxCell>
        <mxCell id="gNXtZLl0SJeopdAhFCKV-12" style="edgeStyle=orthogonalEdgeStyle;rounded=0;orthogonalLoop=1;jettySize=auto;html=1;" edge="1" parent="1" source="gNXtZLl0SJeopdAhFCKV-5" target="gNXtZLl0SJeopdAhFCKV-7">
          <mxGeometry relative="1" as="geometry" />
        </mxCell>
        <mxCell id="gNXtZLl0SJeopdAhFCKV-4" value="API Gateway" style="sketch=0;points=[[0,0,0],[0.25,0,0],[0.5,0,0],[0.75,0,0],[1,0,0],[0,1,0],[0.25,1,0],[0.5,1,0],[0.75,1,0],[1,1,0],[0,0.25,0],[0,0.5,0],[0,0.75,0],[1,0.25,0],[1,0.5,0],[1,0.75,0]];outlineConnect=0;fontColor=#232F3E;fillColor=#E7157B;strokeColor=#ffffff;dashed=0;verticalLabelPosition=bottom;verticalAlign=top;align=center;html=1;fontSize=12;fontStyle=0;aspect=fixed;shape=mxgraph.aws4.resourceIcon;resIcon=mxgraph.aws4.api_gateway;" vertex="1" parent="1">
          <mxGeometry x="260" y="71" width="60" height="60" as="geometry" />
        </mxCell>
        <mxCell id="gNXtZLl0SJeopdAhFCKV-5" value="Lambda&lt;div&gt;Function&lt;/div&gt;" style="sketch=0;points=[[0,0,0],[0.25,0,0],[0.5,0,0],[0.75,0,0],[1,0,0],[0,1,0],[0.25,1,0],[0.5,1,0],[0.75,1,0],[1,1,0],[0,0.25,0],[0,0.5,0],[0,0.75,0],[1,0.25,0],[1,0.5,0],[1,0.75,0]];outlineConnect=0;fontColor=#232F3E;fillColor=#ED7100;strokeColor=#ffffff;dashed=0;verticalLabelPosition=bottom;verticalAlign=top;align=center;html=1;fontSize=12;fontStyle=0;aspect=fixed;shape=mxgraph.aws4.resourceIcon;resIcon=mxgraph.aws4.lambda;" vertex="1" parent="1">
          <mxGeometry x="380" y="71" width="59" height="59" as="geometry" />
        </mxCell>
        <mxCell id="gNXtZLl0SJeopdAhFCKV-10" style="edgeStyle=orthogonalEdgeStyle;rounded=0;orthogonalLoop=1;jettySize=auto;html=1;entryX=0;entryY=0.5;entryDx=0;entryDy=0;entryPerimeter=0;" edge="1" parent="1" source="gNXtZLl0SJeopdAhFCKV-4" target="gNXtZLl0SJeopdAhFCKV-5">
          <mxGeometry relative="1" as="geometry" />
        </mxCell>
      </root>
    </mxGraphModel>
  </diagram>
</mxfile>
